<svg width="22" height="22" viewBox="0 0 22 22" fill="none" xmlns="http://www.w3.org/2000/svg">
<path fill-rule="evenodd" clip-rule="evenodd" d="M13.0101 4.43248C12.6196 4.04196 11.9864 4.04196 11.5959 4.43248C11.2054 4.823 11.2054 5.45617 11.5959 5.84669L15.7493 10.0001H3.83789C3.28561 10.0001 2.83789 10.4478 2.83789 11.0001C2.83789 11.5523 3.28561 12.0001 3.83789 12.0001H15.7493L11.5959 16.1534C11.2054 16.5439 11.2054 17.1771 11.5959 17.5676C11.9864 17.9581 12.6196 17.9581 13.0101 17.5676L18.8697 11.708C19.0512 11.527 19.1635 11.2766 19.1635 11.0001C19.1635 10.7234 19.0511 10.473 18.8696 10.2919L13.0101 4.43248Z" fill="#fb9b11"/>
</svg>